<?xml version="1.0" encoding="utf-8"?>
<!-- Generator: Adobe Illustrator 27.0.0, SVG Export Plug-In . SVG Version: 6.00 Build 0)  -->
<svg version="1.1" id="レイヤー_1" xmlns="http://www.w3.org/2000/svg" xmlns:xlink="http://www.w3.org/1999/xlink" x="0px"
	 y="0px" width="180px" height="180px" viewBox="0 0 180 180" style="enable-background:new 0 0 180 180;" xml:space="preserve">
<style type="text/css">
	.st0{clip-path:url(#SVGID_00000111880145994800326250000000732063291770610091_);}
	.st1{fill:#FFFFFF;}
	.st2{fill:#CBCBCB;}
	.st3{fill:none;stroke:#26FFD0;stroke-width:6;stroke-miterlimit:10;}
</style>
<g>
	<defs>
		<circle id="SVGID_1_" cx="89.8" cy="90.1" r="86.6"/>
	</defs>
	<clipPath id="SVGID_00000054259858657616160260000013739033893682373800_">
		<use xlink:href="#SVGID_1_"  style="overflow:visible;"/>
	</clipPath>
	<g style="clip-path:url(#SVGID_00000054259858657616160260000013739033893682373800_);">
		<rect x="1.4" y="-4.7" class="st1" width="176.9" height="189.6"/>
		<g>
			<rect x="7.7" y="-4.7" class="st2" width="6.3" height="6.3"/>
			<rect x="20.3" y="-4.7" class="st2" width="6.3" height="6.3"/>
			<rect x="33" y="-4.7" class="st2" width="6.3" height="6.3"/>
			<rect x="45.6" y="-4.7" class="st2" width="6.3" height="6.3"/>
			<rect x="58.3" y="-4.7" class="st2" width="6.3" height="6.3"/>
			<rect x="70.9" y="-4.7" class="st2" width="6.3" height="6.3"/>
			<rect x="83.5" y="-4.7" class="st2" width="6.3" height="6.3"/>
			<rect x="96.2" y="-4.7" class="st2" width="6.3" height="6.3"/>
			<rect x="108.8" y="-4.7" class="st2" width="6.3" height="6.3"/>
			<rect x="121.5" y="-4.7" class="st2" width="6.3" height="6.3"/>
			<rect x="134.1" y="-4.7" class="st2" width="6.3" height="6.3"/>
			<rect x="146.7" y="-4.7" class="st2" width="6.3" height="6.3"/>
			<rect x="159.4" y="-4.7" class="st2" width="6.3" height="6.3"/>
			<rect x="1.4" y="1.6" class="st2" width="6.3" height="6.3"/>
			<rect x="14" y="1.6" class="st2" width="6.3" height="6.3"/>
			<rect x="26.7" y="1.6" class="st2" width="6.3" height="6.3"/>
			<rect x="39.3" y="1.6" class="st2" width="6.3" height="6.3"/>
			<rect x="51.9" y="1.6" class="st2" width="6.3" height="6.3"/>
			<rect x="64.6" y="1.6" class="st2" width="6.3" height="6.3"/>
			<rect x="77.2" y="1.6" class="st2" width="6.3" height="6.3"/>
			<rect x="89.9" y="1.6" class="st2" width="6.3" height="6.3"/>
			<rect x="102.5" y="1.6" class="st2" width="6.3" height="6.3"/>
			<rect x="115.1" y="1.6" class="st2" width="6.3" height="6.3"/>
			<rect x="127.8" y="1.6" class="st2" width="6.3" height="6.3"/>
			<rect x="140.4" y="1.6" class="st2" width="6.3" height="6.3"/>
			<rect x="153.1" y="1.6" class="st2" width="6.3" height="6.3"/>
			<rect x="165.7" y="1.6" class="st2" width="6.3" height="6.3"/>
			<rect x="7.7" y="8" class="st2" width="6.3" height="6.3"/>
			<rect x="20.3" y="8" class="st2" width="6.3" height="6.3"/>
			<rect x="33" y="8" class="st2" width="6.3" height="6.3"/>
			<rect x="45.6" y="8" class="st2" width="6.3" height="6.3"/>
			<rect x="58.3" y="8" class="st2" width="6.3" height="6.3"/>
			<rect x="70.9" y="8" class="st2" width="6.3" height="6.3"/>
			<rect x="83.5" y="8" class="st2" width="6.3" height="6.3"/>
			<rect x="96.2" y="8" class="st2" width="6.3" height="6.3"/>
			<rect x="108.8" y="8" class="st2" width="6.3" height="6.3"/>
			<rect x="121.5" y="8" class="st2" width="6.3" height="6.3"/>
			<rect x="134.1" y="8" class="st2" width="6.3" height="6.3"/>
			<rect x="146.7" y="8" class="st2" width="6.3" height="6.3"/>
			<rect x="159.4" y="8" class="st2" width="6.3" height="6.3"/>
			<rect x="1.4" y="14.3" class="st2" width="6.3" height="6.3"/>
			<rect x="14" y="14.3" class="st2" width="6.3" height="6.3"/>
			<rect x="26.7" y="14.3" class="st2" width="6.3" height="6.3"/>
			<rect x="39.3" y="14.3" class="st2" width="6.3" height="6.3"/>
			<rect x="51.9" y="14.3" class="st2" width="6.3" height="6.3"/>
			<rect x="64.6" y="14.3" class="st2" width="6.3" height="6.3"/>
			<rect x="77.2" y="14.3" class="st2" width="6.3" height="6.3"/>
			<rect x="89.9" y="14.3" class="st2" width="6.3" height="6.3"/>
			<rect x="102.5" y="14.3" class="st2" width="6.3" height="6.3"/>
			<rect x="115.1" y="14.3" class="st2" width="6.3" height="6.3"/>
			<rect x="127.8" y="14.3" class="st2" width="6.3" height="6.3"/>
			<rect x="140.4" y="14.3" class="st2" width="6.3" height="6.3"/>
			<rect x="153.1" y="14.3" class="st2" width="6.3" height="6.3"/>
			<rect x="165.7" y="14.3" class="st2" width="6.3" height="6.3"/>
			<rect x="7.7" y="20.6" class="st2" width="6.3" height="6.3"/>
			<rect x="20.3" y="20.6" class="st2" width="6.3" height="6.3"/>
			<rect x="33" y="20.6" class="st2" width="6.3" height="6.3"/>
			<rect x="45.6" y="20.6" class="st2" width="6.3" height="6.3"/>
			<rect x="58.3" y="20.6" class="st2" width="6.3" height="6.3"/>
			<rect x="70.9" y="20.6" class="st2" width="6.3" height="6.3"/>
			<rect x="83.5" y="20.6" class="st2" width="6.3" height="6.3"/>
			<rect x="96.2" y="20.6" class="st2" width="6.3" height="6.3"/>
			<rect x="108.8" y="20.6" class="st2" width="6.3" height="6.3"/>
			<rect x="121.5" y="20.6" class="st2" width="6.3" height="6.3"/>
			<rect x="134.1" y="20.6" class="st2" width="6.3" height="6.3"/>
			<rect x="146.7" y="20.6" class="st2" width="6.3" height="6.3"/>
			<rect x="159.4" y="20.6" class="st2" width="6.3" height="6.3"/>
			<rect x="1.4" y="26.9" class="st2" width="6.3" height="6.3"/>
			<rect x="14" y="26.9" class="st2" width="6.3" height="6.3"/>
			<rect x="26.7" y="26.9" class="st2" width="6.3" height="6.3"/>
			<rect x="39.3" y="26.9" class="st2" width="6.3" height="6.3"/>
			<rect x="51.9" y="26.9" class="st2" width="6.3" height="6.3"/>
			<rect x="64.6" y="26.9" class="st2" width="6.3" height="6.3"/>
			<rect x="77.2" y="26.9" class="st2" width="6.3" height="6.3"/>
			<rect x="89.9" y="26.9" class="st2" width="6.3" height="6.3"/>
			<rect x="102.5" y="26.9" class="st2" width="6.3" height="6.3"/>
			<rect x="115.1" y="26.9" class="st2" width="6.3" height="6.3"/>
			<rect x="127.8" y="26.9" class="st2" width="6.3" height="6.3"/>
			<rect x="140.4" y="26.9" class="st2" width="6.3" height="6.3"/>
			<rect x="153.1" y="26.9" class="st2" width="6.3" height="6.3"/>
			<rect x="165.7" y="26.9" class="st2" width="6.3" height="6.3"/>
			<rect x="7.7" y="33.2" class="st2" width="6.3" height="6.3"/>
			<rect x="20.3" y="33.2" class="st2" width="6.3" height="6.3"/>
			<rect x="33" y="33.2" class="st2" width="6.3" height="6.3"/>
			<rect x="45.6" y="33.2" class="st2" width="6.3" height="6.3"/>
			<rect x="58.3" y="33.2" class="st2" width="6.3" height="6.3"/>
			<rect x="70.9" y="33.2" class="st2" width="6.3" height="6.3"/>
			<rect x="83.5" y="33.2" class="st2" width="6.3" height="6.3"/>
			<rect x="96.2" y="33.2" class="st2" width="6.3" height="6.3"/>
			<rect x="108.8" y="33.2" class="st2" width="6.3" height="6.3"/>
			<rect x="121.5" y="33.2" class="st2" width="6.3" height="6.3"/>
			<rect x="134.1" y="33.2" class="st2" width="6.3" height="6.3"/>
			<rect x="146.7" y="33.2" class="st2" width="6.3" height="6.3"/>
			<rect x="159.4" y="33.2" class="st2" width="6.3" height="6.3"/>
			<rect x="1.4" y="39.6" class="st2" width="6.3" height="6.3"/>
			<rect x="14" y="39.6" class="st2" width="6.3" height="6.3"/>
			<rect x="26.7" y="39.6" class="st2" width="6.3" height="6.3"/>
			<rect x="39.3" y="39.6" class="st2" width="6.3" height="6.3"/>
			<rect x="51.9" y="39.6" class="st2" width="6.3" height="6.3"/>
			<rect x="64.6" y="39.6" class="st2" width="6.3" height="6.3"/>
			<rect x="77.2" y="39.6" class="st2" width="6.3" height="6.3"/>
			<rect x="89.9" y="39.6" class="st2" width="6.3" height="6.3"/>
			<rect x="102.5" y="39.6" class="st2" width="6.3" height="6.3"/>
			<rect x="115.1" y="39.6" class="st2" width="6.3" height="6.3"/>
			<rect x="127.8" y="39.6" class="st2" width="6.3" height="6.3"/>
			<rect x="140.4" y="39.6" class="st2" width="6.3" height="6.3"/>
			<rect x="153.1" y="39.6" class="st2" width="6.3" height="6.3"/>
			<rect x="165.7" y="39.6" class="st2" width="6.3" height="6.3"/>
			<rect x="7.7" y="45.9" class="st2" width="6.3" height="6.3"/>
			<rect x="20.3" y="45.9" class="st2" width="6.3" height="6.3"/>
			<rect x="33" y="45.9" class="st2" width="6.3" height="6.3"/>
			<rect x="45.6" y="45.9" class="st2" width="6.3" height="6.3"/>
			<rect x="58.3" y="45.9" class="st2" width="6.3" height="6.3"/>
			<rect x="70.9" y="45.9" class="st2" width="6.3" height="6.3"/>
			<rect x="83.5" y="45.9" class="st2" width="6.3" height="6.3"/>
			<rect x="96.2" y="45.9" class="st2" width="6.3" height="6.3"/>
			<rect x="108.8" y="45.9" class="st2" width="6.3" height="6.3"/>
			<rect x="121.5" y="45.9" class="st2" width="6.3" height="6.3"/>
			<rect x="134.1" y="45.9" class="st2" width="6.3" height="6.3"/>
			<rect x="146.7" y="45.9" class="st2" width="6.3" height="6.3"/>
			<rect x="159.4" y="45.9" class="st2" width="6.3" height="6.3"/>
			<rect x="1.4" y="52.2" class="st2" width="6.3" height="6.3"/>
			<rect x="14" y="52.2" class="st2" width="6.3" height="6.3"/>
			<rect x="26.7" y="52.2" class="st2" width="6.3" height="6.3"/>
			<rect x="39.3" y="52.2" class="st2" width="6.3" height="6.3"/>
			<rect x="51.9" y="52.2" class="st2" width="6.3" height="6.3"/>
			<rect x="64.6" y="52.2" class="st2" width="6.3" height="6.3"/>
			<rect x="77.2" y="52.2" class="st2" width="6.3" height="6.3"/>
			<rect x="89.9" y="52.2" class="st2" width="6.3" height="6.3"/>
			<rect x="102.5" y="52.2" class="st2" width="6.3" height="6.3"/>
			<rect x="115.1" y="52.2" class="st2" width="6.3" height="6.3"/>
			<rect x="127.8" y="52.2" class="st2" width="6.3" height="6.3"/>
			<rect x="140.4" y="52.2" class="st2" width="6.3" height="6.3"/>
			<rect x="153.1" y="52.2" class="st2" width="6.3" height="6.3"/>
			<rect x="165.7" y="52.2" class="st2" width="6.3" height="6.3"/>
			<rect x="7.7" y="58.5" class="st2" width="6.3" height="6.3"/>
			<rect x="20.3" y="58.5" class="st2" width="6.3" height="6.3"/>
			<rect x="33" y="58.5" class="st2" width="6.3" height="6.3"/>
			<rect x="45.6" y="58.5" class="st2" width="6.3" height="6.3"/>
			<rect x="58.3" y="58.5" class="st2" width="6.3" height="6.3"/>
			<rect x="70.9" y="58.5" class="st2" width="6.3" height="6.3"/>
			<rect x="83.5" y="58.5" class="st2" width="6.3" height="6.3"/>
			<rect x="96.2" y="58.5" class="st2" width="6.3" height="6.3"/>
			<rect x="108.8" y="58.5" class="st2" width="6.3" height="6.3"/>
			<rect x="121.5" y="58.5" class="st2" width="6.3" height="6.3"/>
			<rect x="134.1" y="58.5" class="st2" width="6.3" height="6.3"/>
			<rect x="146.7" y="58.5" class="st2" width="6.3" height="6.3"/>
			<rect x="159.4" y="58.5" class="st2" width="6.3" height="6.3"/>
			<rect x="1.4" y="64.8" class="st2" width="6.3" height="6.3"/>
			<rect x="14" y="64.8" class="st2" width="6.3" height="6.3"/>
			<rect x="26.7" y="64.8" class="st2" width="6.3" height="6.3"/>
			<rect x="39.3" y="64.8" class="st2" width="6.3" height="6.3"/>
			<rect x="51.9" y="64.8" class="st2" width="6.3" height="6.3"/>
			<rect x="64.6" y="64.8" class="st2" width="6.3" height="6.3"/>
			<rect x="77.2" y="64.8" class="st2" width="6.3" height="6.3"/>
			<rect x="89.9" y="64.8" class="st2" width="6.3" height="6.3"/>
			<rect x="102.5" y="64.8" class="st2" width="6.3" height="6.3"/>
			<rect x="115.1" y="64.8" class="st2" width="6.3" height="6.3"/>
			<rect x="127.8" y="64.8" class="st2" width="6.3" height="6.3"/>
			<rect x="140.4" y="64.8" class="st2" width="6.3" height="6.3"/>
			<rect x="153.1" y="64.8" class="st2" width="6.3" height="6.3"/>
			<rect x="165.7" y="64.8" class="st2" width="6.3" height="6.3"/>
			<rect x="7.7" y="71.2" class="st2" width="6.3" height="6.3"/>
			<rect x="20.3" y="71.2" class="st2" width="6.3" height="6.3"/>
			<rect x="33" y="71.2" class="st2" width="6.3" height="6.3"/>
			<rect x="45.6" y="71.2" class="st2" width="6.3" height="6.3"/>
			<rect x="58.3" y="71.2" class="st2" width="6.3" height="6.3"/>
			<rect x="70.9" y="71.2" class="st2" width="6.3" height="6.3"/>
			<rect x="83.5" y="71.2" class="st2" width="6.3" height="6.3"/>
			<rect x="96.2" y="71.2" class="st2" width="6.3" height="6.3"/>
			<rect x="108.8" y="71.2" class="st2" width="6.3" height="6.3"/>
			<rect x="121.5" y="71.2" class="st2" width="6.3" height="6.3"/>
			<rect x="134.1" y="71.2" class="st2" width="6.3" height="6.3"/>
			<rect x="146.7" y="71.2" class="st2" width="6.3" height="6.3"/>
			<rect x="159.4" y="71.2" class="st2" width="6.3" height="6.3"/>
			<rect x="1.4" y="77.5" class="st2" width="6.3" height="6.3"/>
			<rect x="14" y="77.5" class="st2" width="6.3" height="6.3"/>
			<rect x="26.7" y="77.5" class="st2" width="6.3" height="6.3"/>
			<rect x="39.3" y="77.5" class="st2" width="6.3" height="6.3"/>
			<rect x="51.9" y="77.5" class="st2" width="6.3" height="6.3"/>
			<rect x="64.6" y="77.5" class="st2" width="6.3" height="6.3"/>
			<rect x="77.2" y="77.5" class="st2" width="6.3" height="6.3"/>
			<rect x="89.9" y="77.5" class="st2" width="6.3" height="6.3"/>
			<rect x="102.5" y="77.5" class="st2" width="6.3" height="6.3"/>
			<rect x="115.1" y="77.5" class="st2" width="6.3" height="6.3"/>
			<rect x="127.8" y="77.5" class="st2" width="6.3" height="6.3"/>
			<rect x="140.4" y="77.5" class="st2" width="6.3" height="6.3"/>
			<rect x="153.1" y="77.5" class="st2" width="6.3" height="6.3"/>
			<rect x="165.7" y="77.5" class="st2" width="6.3" height="6.3"/>
			<rect x="7.7" y="83.8" class="st2" width="6.3" height="6.3"/>
			<rect x="20.3" y="83.8" class="st2" width="6.3" height="6.3"/>
			<rect x="33" y="83.8" class="st2" width="6.3" height="6.3"/>
			<rect x="45.6" y="83.8" class="st2" width="6.3" height="6.3"/>
			<rect x="58.3" y="83.8" class="st2" width="6.3" height="6.3"/>
			<rect x="70.9" y="83.8" class="st2" width="6.3" height="6.3"/>
			<rect x="83.5" y="83.8" class="st2" width="6.3" height="6.3"/>
			<rect x="96.2" y="83.8" class="st2" width="6.3" height="6.3"/>
			<rect x="108.8" y="83.8" class="st2" width="6.3" height="6.3"/>
			<rect x="121.5" y="83.8" class="st2" width="6.3" height="6.3"/>
			<rect x="134.1" y="83.8" class="st2" width="6.3" height="6.3"/>
			<rect x="146.7" y="83.8" class="st2" width="6.3" height="6.3"/>
			<rect x="159.4" y="83.8" class="st2" width="6.3" height="6.3"/>
			<rect x="1.4" y="90.1" class="st2" width="6.3" height="6.3"/>
			<rect x="14" y="90.1" class="st2" width="6.3" height="6.3"/>
			<rect x="26.7" y="90.1" class="st2" width="6.3" height="6.3"/>
			<rect x="39.3" y="90.1" class="st2" width="6.3" height="6.3"/>
			<rect x="51.9" y="90.1" class="st2" width="6.3" height="6.3"/>
			<rect x="64.6" y="90.1" class="st2" width="6.3" height="6.3"/>
			<rect x="77.2" y="90.1" class="st2" width="6.3" height="6.3"/>
			<rect x="89.9" y="90.1" class="st2" width="6.3" height="6.3"/>
			<rect x="102.5" y="90.1" class="st2" width="6.3" height="6.3"/>
			<rect x="115.1" y="90.1" class="st2" width="6.3" height="6.3"/>
			<rect x="127.8" y="90.1" class="st2" width="6.3" height="6.3"/>
			<rect x="140.4" y="90.1" class="st2" width="6.3" height="6.3"/>
			<rect x="153.1" y="90.1" class="st2" width="6.3" height="6.3"/>
			<rect x="165.7" y="90.1" class="st2" width="6.3" height="6.3"/>
			<rect x="7.7" y="96.4" class="st2" width="6.3" height="6.3"/>
			<rect x="20.3" y="96.4" class="st2" width="6.3" height="6.3"/>
			<rect x="33" y="96.4" class="st2" width="6.3" height="6.3"/>
			<rect x="45.6" y="96.4" class="st2" width="6.3" height="6.3"/>
			<rect x="58.3" y="96.4" class="st2" width="6.3" height="6.3"/>
			<rect x="70.9" y="96.4" class="st2" width="6.3" height="6.3"/>
			<rect x="83.5" y="96.4" class="st2" width="6.3" height="6.3"/>
			<rect x="96.2" y="96.4" class="st2" width="6.3" height="6.3"/>
			<rect x="108.8" y="96.4" class="st2" width="6.3" height="6.3"/>
			<rect x="121.5" y="96.4" class="st2" width="6.3" height="6.3"/>
			<rect x="134.1" y="96.4" class="st2" width="6.3" height="6.3"/>
			<rect x="146.7" y="96.4" class="st2" width="6.3" height="6.3"/>
			<rect x="159.4" y="96.4" class="st2" width="6.3" height="6.3"/>
			<rect x="1.4" y="102.8" class="st2" width="6.3" height="6.3"/>
			<rect x="14" y="102.8" class="st2" width="6.3" height="6.3"/>
			<rect x="26.7" y="102.8" class="st2" width="6.3" height="6.3"/>
			<rect x="39.3" y="102.8" class="st2" width="6.3" height="6.3"/>
			<rect x="51.9" y="102.8" class="st2" width="6.3" height="6.3"/>
			<rect x="64.6" y="102.8" class="st2" width="6.3" height="6.3"/>
			<rect x="77.2" y="102.8" class="st2" width="6.3" height="6.3"/>
			<rect x="89.9" y="102.8" class="st2" width="6.3" height="6.3"/>
			<rect x="102.5" y="102.8" class="st2" width="6.3" height="6.3"/>
			<rect x="115.1" y="102.8" class="st2" width="6.3" height="6.3"/>
			<rect x="127.8" y="102.8" class="st2" width="6.3" height="6.3"/>
			<rect x="140.4" y="102.8" class="st2" width="6.3" height="6.3"/>
			<rect x="153.1" y="102.8" class="st2" width="6.3" height="6.3"/>
			<rect x="165.7" y="102.8" class="st2" width="6.3" height="6.3"/>
			<rect x="7.7" y="109.1" class="st2" width="6.3" height="6.3"/>
			<rect x="20.3" y="109.1" class="st2" width="6.3" height="6.3"/>
			<rect x="33" y="109.1" class="st2" width="6.3" height="6.3"/>
			<rect x="45.6" y="109.1" class="st2" width="6.3" height="6.3"/>
			<rect x="58.3" y="109.1" class="st2" width="6.3" height="6.3"/>
			<rect x="70.9" y="109.1" class="st2" width="6.3" height="6.3"/>
			<rect x="83.5" y="109.1" class="st2" width="6.3" height="6.3"/>
			<rect x="96.2" y="109.1" class="st2" width="6.3" height="6.3"/>
			<rect x="108.8" y="109.1" class="st2" width="6.3" height="6.3"/>
			<rect x="121.5" y="109.1" class="st2" width="6.3" height="6.3"/>
			<rect x="134.1" y="109.1" class="st2" width="6.3" height="6.3"/>
			<rect x="146.7" y="109.1" class="st2" width="6.3" height="6.3"/>
			<rect x="159.4" y="109.1" class="st2" width="6.3" height="6.3"/>
			<rect x="1.4" y="115.4" class="st2" width="6.3" height="6.3"/>
			<rect x="14" y="115.4" class="st2" width="6.3" height="6.3"/>
			<rect x="26.7" y="115.4" class="st2" width="6.3" height="6.3"/>
			<rect x="39.3" y="115.4" class="st2" width="6.3" height="6.3"/>
			<rect x="51.9" y="115.4" class="st2" width="6.3" height="6.3"/>
			<rect x="64.6" y="115.4" class="st2" width="6.3" height="6.3"/>
			<rect x="77.2" y="115.4" class="st2" width="6.3" height="6.3"/>
			<rect x="89.9" y="115.4" class="st2" width="6.3" height="6.3"/>
			<rect x="102.5" y="115.4" class="st2" width="6.3" height="6.3"/>
			<rect x="115.1" y="115.4" class="st2" width="6.3" height="6.3"/>
			<rect x="127.8" y="115.4" class="st2" width="6.3" height="6.3"/>
			<rect x="140.4" y="115.4" class="st2" width="6.3" height="6.3"/>
			<rect x="153.1" y="115.4" class="st2" width="6.3" height="6.3"/>
			<rect x="165.7" y="115.4" class="st2" width="6.3" height="6.3"/>
			<rect x="7.7" y="121.7" class="st2" width="6.3" height="6.3"/>
			<rect x="20.3" y="121.7" class="st2" width="6.3" height="6.3"/>
			<rect x="33" y="121.7" class="st2" width="6.3" height="6.3"/>
			<rect x="45.6" y="121.7" class="st2" width="6.3" height="6.3"/>
			<rect x="58.3" y="121.7" class="st2" width="6.3" height="6.3"/>
			<rect x="70.9" y="121.7" class="st2" width="6.3" height="6.3"/>
			<rect x="83.5" y="121.7" class="st2" width="6.3" height="6.3"/>
			<rect x="96.2" y="121.7" class="st2" width="6.3" height="6.3"/>
			<rect x="108.8" y="121.7" class="st2" width="6.3" height="6.3"/>
			<rect x="121.5" y="121.7" class="st2" width="6.3" height="6.3"/>
			<rect x="134.1" y="121.7" class="st2" width="6.3" height="6.3"/>
			<rect x="146.7" y="121.7" class="st2" width="6.3" height="6.3"/>
			<rect x="159.4" y="121.7" class="st2" width="6.3" height="6.3"/>
			<rect x="1.4" y="128" class="st2" width="6.3" height="6.3"/>
			<rect x="14" y="128" class="st2" width="6.3" height="6.3"/>
			<rect x="26.7" y="128" class="st2" width="6.3" height="6.3"/>
			<rect x="39.3" y="128" class="st2" width="6.3" height="6.3"/>
			<rect x="51.9" y="128" class="st2" width="6.3" height="6.3"/>
			<rect x="64.6" y="128" class="st2" width="6.3" height="6.3"/>
			<rect x="77.2" y="128" class="st2" width="6.3" height="6.3"/>
			<rect x="89.9" y="128" class="st2" width="6.3" height="6.3"/>
			<rect x="102.5" y="128" class="st2" width="6.3" height="6.3"/>
			<rect x="115.1" y="128" class="st2" width="6.3" height="6.3"/>
			<rect x="127.8" y="128" class="st2" width="6.3" height="6.3"/>
			<rect x="140.4" y="128" class="st2" width="6.3" height="6.3"/>
			<rect x="153.1" y="128" class="st2" width="6.3" height="6.3"/>
			<rect x="165.7" y="128" class="st2" width="6.3" height="6.3"/>
			<rect x="7.7" y="134.4" class="st2" width="6.3" height="6.3"/>
			<rect x="20.3" y="134.4" class="st2" width="6.3" height="6.3"/>
			<rect x="33" y="134.4" class="st2" width="6.3" height="6.3"/>
			<rect x="45.6" y="134.4" class="st2" width="6.3" height="6.3"/>
			<rect x="58.3" y="134.4" class="st2" width="6.3" height="6.3"/>
			<rect x="70.9" y="134.4" class="st2" width="6.3" height="6.3"/>
			<rect x="83.5" y="134.4" class="st2" width="6.3" height="6.3"/>
			<rect x="96.2" y="134.4" class="st2" width="6.3" height="6.3"/>
			<rect x="108.8" y="134.4" class="st2" width="6.3" height="6.3"/>
			<rect x="121.5" y="134.4" class="st2" width="6.3" height="6.3"/>
			<rect x="134.1" y="134.4" class="st2" width="6.3" height="6.3"/>
			<rect x="146.7" y="134.4" class="st2" width="6.3" height="6.3"/>
			<rect x="159.4" y="134.4" class="st2" width="6.3" height="6.3"/>
			<rect x="1.4" y="140.7" class="st2" width="6.3" height="6.3"/>
			<rect x="14" y="140.7" class="st2" width="6.3" height="6.3"/>
			<rect x="26.7" y="140.7" class="st2" width="6.3" height="6.3"/>
			<rect x="39.3" y="140.7" class="st2" width="6.3" height="6.3"/>
			<rect x="51.9" y="140.7" class="st2" width="6.3" height="6.3"/>
			<rect x="64.6" y="140.7" class="st2" width="6.3" height="6.3"/>
			<rect x="77.2" y="140.7" class="st2" width="6.3" height="6.3"/>
			<rect x="89.9" y="140.7" class="st2" width="6.3" height="6.3"/>
			<rect x="102.5" y="140.7" class="st2" width="6.3" height="6.3"/>
			<rect x="115.1" y="140.7" class="st2" width="6.3" height="6.3"/>
			<rect x="127.8" y="140.7" class="st2" width="6.3" height="6.3"/>
			<rect x="140.4" y="140.7" class="st2" width="6.3" height="6.3"/>
			<rect x="153.1" y="140.7" class="st2" width="6.3" height="6.3"/>
			<rect x="165.7" y="140.7" class="st2" width="6.3" height="6.3"/>
			<rect x="7.7" y="147" class="st2" width="6.3" height="6.3"/>
			<rect x="20.3" y="147" class="st2" width="6.3" height="6.3"/>
			<rect x="33" y="147" class="st2" width="6.3" height="6.3"/>
			<rect x="45.6" y="147" class="st2" width="6.3" height="6.3"/>
			<rect x="58.3" y="147" class="st2" width="6.3" height="6.3"/>
			<rect x="70.9" y="147" class="st2" width="6.3" height="6.3"/>
			<rect x="83.5" y="147" class="st2" width="6.3" height="6.3"/>
			<rect x="96.2" y="147" class="st2" width="6.3" height="6.3"/>
			<rect x="108.8" y="147" class="st2" width="6.3" height="6.3"/>
			<rect x="121.5" y="147" class="st2" width="6.3" height="6.3"/>
			<rect x="134.1" y="147" class="st2" width="6.3" height="6.3"/>
			<rect x="146.7" y="147" class="st2" width="6.3" height="6.3"/>
			<rect x="159.4" y="147" class="st2" width="6.3" height="6.3"/>
			<rect x="1.4" y="153.3" class="st2" width="6.3" height="6.3"/>
			<rect x="14" y="153.3" class="st2" width="6.3" height="6.3"/>
			<rect x="26.7" y="153.3" class="st2" width="6.3" height="6.3"/>
			<rect x="39.3" y="153.3" class="st2" width="6.3" height="6.3"/>
			<rect x="51.9" y="153.3" class="st2" width="6.3" height="6.3"/>
			<rect x="64.6" y="153.3" class="st2" width="6.3" height="6.3"/>
			<rect x="77.2" y="153.3" class="st2" width="6.3" height="6.3"/>
			<rect x="89.9" y="153.3" class="st2" width="6.3" height="6.3"/>
			<rect x="102.5" y="153.3" class="st2" width="6.3" height="6.3"/>
			<rect x="115.1" y="153.3" class="st2" width="6.3" height="6.3"/>
			<rect x="127.8" y="153.3" class="st2" width="6.3" height="6.3"/>
			<rect x="140.4" y="153.3" class="st2" width="6.3" height="6.3"/>
			<rect x="153.1" y="153.3" class="st2" width="6.3" height="6.3"/>
			<rect x="165.7" y="153.3" class="st2" width="6.3" height="6.3"/>
			<rect x="7.7" y="159.6" class="st2" width="6.3" height="6.3"/>
			<rect x="20.3" y="159.6" class="st2" width="6.3" height="6.3"/>
			<rect x="33" y="159.6" class="st2" width="6.3" height="6.3"/>
			<rect x="45.6" y="159.6" class="st2" width="6.3" height="6.3"/>
			<rect x="58.3" y="159.6" class="st2" width="6.3" height="6.3"/>
			<rect x="70.9" y="159.6" class="st2" width="6.3" height="6.3"/>
			<rect x="83.5" y="159.6" class="st2" width="6.3" height="6.3"/>
			<rect x="96.2" y="159.6" class="st2" width="6.3" height="6.3"/>
			<rect x="108.8" y="159.6" class="st2" width="6.3" height="6.3"/>
			<rect x="121.5" y="159.6" class="st2" width="6.3" height="6.3"/>
			<rect x="134.1" y="159.6" class="st2" width="6.3" height="6.3"/>
			<rect x="146.7" y="159.6" class="st2" width="6.3" height="6.3"/>
			<rect x="159.4" y="159.6" class="st2" width="6.3" height="6.3"/>
			<rect x="1.4" y="166" class="st2" width="6.3" height="6.3"/>
			<rect x="14" y="166" class="st2" width="6.3" height="6.3"/>
			<rect x="26.7" y="166" class="st2" width="6.3" height="6.3"/>
			<rect x="39.3" y="166" class="st2" width="6.3" height="6.3"/>
			<rect x="51.9" y="166" class="st2" width="6.3" height="6.3"/>
			<rect x="64.6" y="166" class="st2" width="6.3" height="6.3"/>
			<rect x="77.2" y="166" class="st2" width="6.3" height="6.3"/>
			<rect x="89.9" y="166" class="st2" width="6.3" height="6.3"/>
			<rect x="102.5" y="166" class="st2" width="6.3" height="6.3"/>
			<rect x="115.1" y="166" class="st2" width="6.3" height="6.3"/>
			<rect x="127.8" y="166" class="st2" width="6.3" height="6.3"/>
			<rect x="140.4" y="166" class="st2" width="6.3" height="6.3"/>
			<rect x="153.1" y="166" class="st2" width="6.3" height="6.3"/>
			<rect x="165.7" y="166" class="st2" width="6.3" height="6.3"/>
			<rect x="7.7" y="172.3" class="st2" width="6.3" height="6.3"/>
			<rect x="20.3" y="172.3" class="st2" width="6.3" height="6.3"/>
			<rect x="33" y="172.3" class="st2" width="6.3" height="6.3"/>
			<rect x="45.6" y="172.3" class="st2" width="6.3" height="6.3"/>
			<rect x="58.3" y="172.3" class="st2" width="6.3" height="6.3"/>
			<rect x="70.9" y="172.3" class="st2" width="6.3" height="6.3"/>
			<rect x="83.5" y="172.3" class="st2" width="6.3" height="6.3"/>
			<rect x="96.2" y="172.3" class="st2" width="6.3" height="6.3"/>
			<rect x="108.8" y="172.3" class="st2" width="6.3" height="6.3"/>
			<rect x="121.5" y="172.3" class="st2" width="6.3" height="6.3"/>
			<rect x="134.1" y="172.3" class="st2" width="6.3" height="6.3"/>
			<rect x="146.7" y="172.3" class="st2" width="6.3" height="6.3"/>
			<rect x="159.4" y="172.3" class="st2" width="6.3" height="6.3"/>
			<rect x="172" y="-4.7" class="st2" width="6.3" height="6.3"/>
			<rect x="172" y="8" class="st2" width="6.3" height="6.3"/>
			<rect x="172" y="20.6" class="st2" width="6.3" height="6.3"/>
			<rect x="172" y="33.2" class="st2" width="6.3" height="6.3"/>
			<rect x="172" y="45.9" class="st2" width="6.3" height="6.3"/>
			<rect x="172" y="58.5" class="st2" width="6.3" height="6.3"/>
			<rect x="172" y="71.2" class="st2" width="6.3" height="6.3"/>
			<rect x="172" y="83.8" class="st2" width="6.3" height="6.3"/>
			<rect x="172" y="96.4" class="st2" width="6.3" height="6.3"/>
			<rect x="172" y="109.1" class="st2" width="6.3" height="6.3"/>
			<rect x="172" y="121.7" class="st2" width="6.3" height="6.3"/>
			<rect x="172" y="134.4" class="st2" width="6.3" height="6.3"/>
			<rect x="172" y="147" class="st2" width="6.3" height="6.3"/>
			<rect x="172" y="159.6" class="st2" width="6.3" height="6.3"/>
			<rect x="172" y="172.3" class="st2" width="6.3" height="6.3"/>
			<rect x="1.4" y="178.6" class="st2" width="6.3" height="6.3"/>
			<rect x="14" y="178.6" class="st2" width="6.3" height="6.3"/>
			<rect x="26.7" y="178.6" class="st2" width="6.3" height="6.3"/>
			<rect x="39.3" y="178.6" class="st2" width="6.3" height="6.3"/>
			<rect x="51.9" y="178.6" class="st2" width="6.3" height="6.3"/>
			<rect x="64.6" y="178.6" class="st2" width="6.3" height="6.3"/>
			<rect x="77.2" y="178.6" class="st2" width="6.3" height="6.3"/>
			<rect x="89.9" y="178.6" class="st2" width="6.3" height="6.3"/>
			<rect x="102.5" y="178.6" class="st2" width="6.3" height="6.3"/>
			<rect x="115.1" y="178.6" class="st2" width="6.3" height="6.3"/>
			<rect x="127.8" y="178.6" class="st2" width="6.3" height="6.3"/>
			<rect x="140.4" y="178.6" class="st2" width="6.3" height="6.3"/>
			<rect x="153.1" y="178.6" class="st2" width="6.3" height="6.3"/>
			<rect x="165.7" y="178.6" class="st2" width="6.3" height="6.3"/>
		</g>
	</g>
</g>
<circle class="st3" cx="89.8" cy="90.1" r="86.6"/>
</svg>
